<svg width="193" height="37" viewBox="0 0 193 37" fill="none" xmlns="http://www.w3.org/2000/svg">
<path d="M10.6974 36.768C7.08144 36.768 4.42544 35.856 2.72944 34.032C1.03344 32.208 0.185438 29.184 0.185438 24.96C0.185438 21.6 0.745438 17.984 1.86544 14.112C3.01744 10.24 4.84144 6.928 7.33744 4.176C9.86544 1.392 13.0654 -2.86102e-06 16.9374 -2.86102e-06C19.3374 -2.86102e-06 21.2734 0.527998 22.7454 1.584C24.2174 2.64 24.9534 4.256 24.9534 6.432C24.9534 7.808 24.6814 8.896 24.1374 9.696C23.5934 10.464 22.7454 10.848 21.5934 10.848C20.4414 10.848 19.5294 10.432 18.8574 9.6C19.4334 9.312 19.9454 8.736 20.3934 7.872C20.8414 7.008 21.0654 6.112 21.0654 5.184C21.0654 4.32 20.8254 3.616 20.3454 3.072C19.8974 2.528 19.1614 2.256 18.1374 2.256C16.4414 2.256 14.8254 3.424 13.2894 5.76C11.7534 8.064 10.5054 10.976 9.54544 14.496C8.61744 18.016 8.15344 21.408 8.15344 24.672C8.15344 27.104 8.56944 28.96 9.40144 30.24C10.2334 31.52 11.7374 32.16 13.9134 32.16C15.8014 32.16 17.5454 31.744 19.1454 30.912C20.7454 30.08 22.1214 28.896 23.2734 27.36L24.3774 27.84C23.5774 29.856 22.3934 31.536 20.8254 32.88C19.2574 34.224 17.5774 35.216 15.7854 35.856C13.9934 36.464 12.2974 36.768 10.6974 36.768ZM26.3968 12H33.3088L32.6848 14.976C33.7728 14.016 34.7488 13.28 35.6128 12.768C36.5088 12.256 37.4688 12 38.4928 12C39.5168 12 40.3168 12.352 40.8928 13.056C41.5008 13.76 41.8048 14.608 41.8048 15.6C41.8048 16.528 41.5008 17.344 40.8928 18.048C40.2848 18.752 39.4368 19.104 38.3488 19.104C37.6448 19.104 37.1648 18.944 36.9088 18.624C36.6848 18.272 36.5088 17.776 36.3808 17.136C36.2848 16.72 36.1888 16.416 36.0928 16.224C35.9968 16.032 35.8208 15.936 35.5648 15.936C34.8928 15.936 34.3168 16.08 33.8368 16.368C33.3888 16.624 32.7968 17.088 32.0608 17.76L28.2208 36H21.3088L26.3968 12ZM49.1957 9.408C48.1397 9.408 47.2437 9.04 46.5077 8.304C45.7717 7.568 45.4037 6.672 45.4037 5.616C45.4037 4.56 45.7717 3.664 46.5077 2.928C47.2437 2.16 48.1397 1.776 49.1957 1.776C50.2517 1.776 51.1477 2.16 51.8837 2.928C52.6517 3.664 53.0357 4.56 53.0357 5.616C53.0357 6.672 52.6517 7.568 51.8837 8.304C51.1477 9.04 50.2517 9.408 49.1957 9.408ZM45.9317 36.288C44.3957 36.288 43.1477 35.808 42.1877 34.848C41.2597 33.888 40.7957 32.448 40.7957 30.528C40.7957 29.728 40.9237 28.688 41.1797 27.408L44.4437 12H51.3557L47.8997 28.32C47.7717 28.8 47.7077 29.312 47.7077 29.856C47.7077 30.496 47.8517 30.96 48.1397 31.248C48.4597 31.504 48.9717 31.632 49.6757 31.632C50.6037 31.632 51.4677 31.248 52.2677 30.48C53.0677 29.68 53.6437 28.656 53.9957 27.408H56.0117C54.8277 30.864 53.3077 33.216 51.4517 34.464C49.5957 35.68 47.7557 36.288 45.9317 36.288ZM59.4486 36.288C57.9126 36.288 56.6166 36 55.5606 35.424C54.5046 34.816 53.7206 34.048 53.2086 33.12C52.6966 32.16 52.4406 31.168 52.4406 30.144C52.4406 29.088 52.6966 28.176 53.2086 27.408C53.6886 26.608 54.2806 26.032 54.9846 25.68C56.2326 23.44 57.3206 21.184 58.2486 18.912C59.1766 16.608 60.0566 14.128 60.8886 11.472L67.9926 10.512C68.1526 14.608 68.4246 19.04 68.8086 23.808C68.9686 25.728 69.0486 27.12 69.0486 27.984C69.0486 28.72 68.9846 29.328 68.8566 29.808C70.3606 28.944 71.5126 28.144 72.3126 27.408H74.3286C72.2806 29.776 69.8326 31.776 66.9846 33.408C66.0566 34.4 64.9046 35.136 63.5286 35.616C62.1846 36.064 60.8246 36.288 59.4486 36.288ZM57.9126 32.496C59.0966 32.496 60.0886 32.144 60.8886 31.44C61.6886 30.736 62.0886 29.6 62.0886 28.032C62.0886 27.072 61.9926 25.728 61.8006 24C61.4806 20.352 61.2726 17.904 61.1766 16.656C60.4086 19.184 59.1126 22.208 57.2886 25.728C58.0246 26.112 58.3926 26.672 58.3926 27.408C58.3926 28.016 58.1846 28.56 57.7686 29.04C57.3846 29.52 56.8886 29.76 56.2806 29.76C55.6086 29.76 55.1766 29.552 54.9846 29.136C54.9846 30.288 55.2086 31.136 55.6566 31.68C56.1366 32.224 56.8886 32.496 57.9126 32.496ZM77.7767 36.288C76.2407 36.288 74.9447 36 73.8887 35.424C72.8327 34.816 72.0487 34.048 71.5367 33.12C71.0247 32.16 70.7687 31.168 70.7687 30.144C70.7687 29.088 71.0247 28.176 71.5367 27.408C72.0167 26.608 72.6087 26.032 73.3127 25.68C74.5607 23.44 75.6487 21.184 76.5767 18.912C77.5047 16.608 78.3847 14.128 79.2167 11.472L86.3207 10.512C86.4807 14.608 86.7527 19.04 87.1367 23.808C87.2967 25.728 87.3767 27.12 87.3767 27.984C87.3767 29.936 86.8807 31.536 85.8887 32.784C84.8967 34.032 83.6647 34.928 82.1927 35.472C80.7527 36.016 79.2807 36.288 77.7767 36.288ZM76.2407 32.496C77.4247 32.496 78.4167 32.144 79.2167 31.44C80.0167 30.736 80.4167 29.6 80.4167 28.032C80.4167 27.072 80.3207 25.728 80.1287 24C79.8087 20.352 79.6007 17.904 79.5047 16.656C78.7367 19.184 77.4407 22.208 75.6167 25.728C76.3527 26.112 76.7207 26.672 76.7207 27.408C76.7207 28.016 76.5127 28.56 76.0967 29.04C75.7127 29.52 75.2167 29.76 74.6087 29.76C73.9367 29.76 73.5047 29.552 73.3127 29.136C73.3127 30.288 73.5367 31.136 73.9847 31.68C74.4647 32.224 75.2167 32.496 76.2407 32.496ZM109.322 36.768C105.706 36.768 103.05 35.856 101.354 34.032C99.6584 32.208 98.8104 29.184 98.8104 24.96C98.8104 21.6 99.3704 17.984 100.49 14.112C101.642 10.24 103.466 6.928 105.962 4.176C108.49 1.392 111.69 -2.86102e-06 115.562 -2.86102e-06C117.962 -2.86102e-06 119.898 0.527998 121.37 1.584C122.842 2.64 123.578 4.256 123.578 6.432C123.578 7.808 123.306 8.896 122.762 9.696C122.218 10.464 121.37 10.848 120.218 10.848C119.066 10.848 118.154 10.432 117.482 9.6C118.058 9.312 118.57 8.736 119.018 7.872C119.466 7.008 119.69 6.112 119.69 5.184C119.69 4.32 119.45 3.616 118.97 3.072C118.522 2.528 117.786 2.256 116.762 2.256C115.066 2.256 113.45 3.424 111.914 5.76C110.378 8.064 109.13 10.976 108.17 14.496C107.242 18.016 106.778 21.408 106.778 24.672C106.778 27.104 107.194 28.96 108.026 30.24C108.858 31.52 110.362 32.16 112.538 32.16C114.426 32.16 116.17 31.744 117.77 30.912C119.37 30.08 120.746 28.896 121.898 27.36L123.002 27.84C122.202 29.856 121.018 31.536 119.45 32.88C117.882 34.224 116.202 35.216 114.41 35.856C112.618 36.464 110.922 36.768 109.322 36.768ZM125.022 12H131.934L131.31 14.976C132.398 14.016 133.374 13.28 134.238 12.768C135.134 12.256 136.094 12 137.118 12C138.142 12 138.942 12.352 139.518 13.056C140.126 13.76 140.43 14.608 140.43 15.6C140.43 16.528 140.126 17.344 139.518 18.048C138.91 18.752 138.062 19.104 136.974 19.104C136.27 19.104 135.79 18.944 135.534 18.624C135.31 18.272 135.134 17.776 135.006 17.136C134.91 16.72 134.814 16.416 134.718 16.224C134.622 16.032 134.446 15.936 134.19 15.936C133.518 15.936 132.942 16.08 132.462 16.368C132.014 16.624 131.422 17.088 130.686 17.76L126.846 36H119.934L125.022 12ZM165.821 36.288C163.261 36.288 161.501 35.68 160.541 34.464C159.613 33.248 159.149 31.728 159.149 29.904C159.149 28.56 159.501 27.472 160.205 26.64C160.909 25.776 161.709 25.344 162.605 25.344C164.269 25.344 165.101 26.016 165.101 27.36C165.101 27.936 164.877 28.448 164.429 28.896C163.981 29.312 163.437 29.52 162.797 29.52C162.125 29.52 161.693 29.312 161.501 28.896C161.501 30.048 161.725 30.944 162.173 31.584C162.653 32.192 163.357 32.496 164.285 32.496C165.373 32.496 166.141 32.176 166.589 31.536C167.069 30.864 167.309 29.696 167.309 28.032C167.309 27.072 167.213 25.856 167.021 24.384C166.701 21.312 166.445 18.176 166.253 14.976C163.981 18.464 161.293 20.672 158.189 21.6C157.997 24.544 157.373 27.12 156.317 29.328C155.261 31.536 153.901 33.232 152.237 34.416C150.605 35.6 148.797 36.192 146.813 36.192C144.445 36.192 142.573 35.584 141.197 34.368C139.821 33.152 139.133 31.232 139.133 28.608C139.133 26.4 139.565 23.984 140.429 21.36C141.293 18.704 142.701 16.416 144.653 14.496C146.605 12.544 149.101 11.568 152.141 11.568C156.205 11.568 158.253 14.08 158.285 19.104C160.653 18.976 163.261 16.432 166.109 11.472L173.213 10.512C173.373 14.608 173.645 19.04 174.029 23.808C174.189 25.728 174.269 27.12 174.269 27.984C174.269 28.624 174.221 29.216 174.125 29.76C175.085 29.216 176.221 28.432 177.533 27.408H179.549C177.789 29.456 175.565 31.328 172.877 33.024C172.077 34.176 171.053 35.008 169.805 35.52C168.589 36.032 167.261 36.288 165.821 36.288ZM148.733 31.872C149.917 31.872 151.021 30.928 152.045 29.04C153.069 27.12 153.773 24.752 154.157 21.936C153.389 21.648 153.005 20.928 153.005 19.776C153.005 18.528 153.453 17.696 154.349 17.28C154.285 16.256 154.109 15.536 153.821 15.12C153.565 14.704 153.133 14.496 152.525 14.496C151.469 14.496 150.461 15.264 149.501 16.8C148.541 18.304 147.757 20.144 147.149 22.32C146.573 24.464 146.285 26.352 146.285 27.984C146.285 29.52 146.461 30.56 146.813 31.104C147.165 31.616 147.805 31.872 148.733 31.872ZM183.011 36.288C181.475 36.288 180.179 36 179.123 35.424C178.067 34.816 177.283 34.048 176.771 33.12C176.259 32.16 176.003 31.168 176.003 30.144C176.003 29.088 176.259 28.176 176.771 27.408C177.251 26.608 177.843 26.032 178.547 25.68C179.795 23.44 180.883 21.184 181.811 18.912C182.739 16.608 183.619 14.128 184.451 11.472L191.555 10.512C191.715 14.608 191.987 19.04 192.371 23.808C192.531 25.728 192.611 27.12 192.611 27.984C192.611 29.936 192.115 31.536 191.123 32.784C190.131 34.032 188.899 34.928 187.427 35.472C185.987 36.016 184.515 36.288 183.011 36.288ZM181.475 32.496C182.659 32.496 183.651 32.144 184.451 31.44C185.251 30.736 185.651 29.6 185.651 28.032C185.651 27.072 185.555 25.728 185.363 24C185.043 20.352 184.835 17.904 184.739 16.656C183.971 19.184 182.675 22.208 180.851 25.728C181.587 26.112 181.955 26.672 181.955 27.408C181.955 28.016 181.747 28.56 181.331 29.04C180.947 29.52 180.451 29.76 179.843 29.76C179.171 29.76 178.739 29.552 178.547 29.136C178.547 30.288 178.771 31.136 179.219 31.68C179.699 32.224 180.451 32.496 181.475 32.496Z" fill="#B70B0B"/>
</svg>
